<svg  width="49" height="33" viewBox="0 0 49 33" fill="none" xmlns="http://www.w3.org/2000/svg">
<g clip-path="url(#clip0_76_39)">
<path d="M13.6186 11.8959C13.6186 12.5645 13.6829 13.1065 13.7954 13.504C13.924 13.9015 14.0848 14.3351 14.3099 14.8048C14.3903 14.9494 14.4225 15.0939 14.4225 15.2204C14.4225 15.4011 14.326 15.5818 14.117 15.7624L13.104 16.5213C12.9593 16.6297 12.8146 16.6839 12.686 16.6839C12.5252 16.6839 12.3644 16.5936 12.2036 16.4309C11.9785 16.1599 11.7856 15.8708 11.6248 15.5818C11.464 15.2746 11.3032 14.9313 11.1264 14.5158C9.87221 16.178 8.2965 17.0091 6.39922 17.0091C5.04861 17.0091 3.97133 16.5755 3.18348 15.7082C2.39562 14.841 1.99365 13.6846 1.99365 12.2392C1.99365 10.7035 2.47601 9.4568 3.45681 8.51728C4.43761 7.57776 5.73999 7.108 7.3961 7.108C7.94277 7.108 8.50553 7.1622 9.10044 7.25254C9.69535 7.34288 10.3063 7.48742 10.9495 7.65003V6.33108C10.9495 4.95794 10.6922 4.00035 10.1938 3.44025C9.67927 2.88015 8.81102 2.60913 7.57296 2.60913C7.01021 2.60913 6.43137 2.6814 5.83646 2.84401C5.24155 3.00662 4.66272 3.20537 4.09996 3.45832C3.8427 3.58479 3.64976 3.65706 3.53721 3.6932C3.42466 3.72933 3.34426 3.7474 3.27995 3.7474C3.05485 3.7474 2.9423 3.56672 2.9423 3.1873V2.30198C2.9423 2.0129 2.97445 1.79608 3.05485 1.66961C3.13524 1.54314 3.27995 1.41666 3.50505 1.29019C4.0678 0.964968 4.74311 0.693952 5.53097 0.47714C6.31882 0.242259 7.15491 0.133853 8.03924 0.133853C9.95261 0.133853 11.3515 0.621681 12.2519 1.59734C13.1362 2.573 13.5864 4.05455 13.5864 6.042V11.8959H13.6186ZM7.0906 14.6422C7.6212 14.6422 8.16787 14.5338 8.74671 14.317C9.32554 14.1002 9.84006 13.7027 10.2742 13.1607C10.5314 12.8174 10.7244 12.438 10.8209 12.0044C10.9173 11.5707 10.9816 11.0468 10.9816 10.4325V9.67361C10.5154 9.54714 10.0169 9.43873 9.5024 9.36646C8.98789 9.29419 8.48945 9.25806 7.99101 9.25806C6.91374 9.25806 6.12588 9.49294 5.59528 9.98077C5.06468 10.4686 4.80742 11.1552 4.80742 12.0586C4.80742 12.9077 5.00037 13.5401 5.40234 13.9737C5.78823 14.4254 6.35098 14.6422 7.0906 14.6422V14.6422ZM20.0018 16.5936C19.7124 16.5936 19.5194 16.5394 19.3908 16.4129C19.2622 16.3045 19.1496 16.0515 19.0532 15.7082L15.2747 1.74188C15.1782 1.38053 15.1299 1.14565 15.1299 1.01917C15.1299 0.730088 15.2586 0.567478 15.5158 0.567478H17.0916C17.397 0.567478 17.6061 0.621681 17.7186 0.748156C17.8472 0.856562 17.9437 1.10951 18.0402 1.4528L20.7414 13.4136L23.2497 1.4528C23.3301 1.09144 23.4266 0.856562 23.5552 0.748156C23.6838 0.639749 23.9089 0.567478 24.1983 0.567478H25.4846C25.7901 0.567478 25.9992 0.621681 26.1278 0.748156C26.2564 0.856562 26.369 1.10951 26.4333 1.4528L28.9737 13.5582L31.7553 1.4528C31.8518 1.09144 31.9644 0.856562 32.0769 0.748156C32.2055 0.639749 32.4146 0.567478 32.704 0.567478H34.1993C34.4565 0.567478 34.6013 0.71202 34.6013 1.01917C34.6013 1.10951 34.5852 1.19985 34.5691 1.30826C34.553 1.41666 34.5209 1.5612 34.4565 1.75995L30.5816 15.7263C30.4851 16.0877 30.3726 16.3225 30.2439 16.4309C30.1153 16.5394 29.9063 16.6116 29.6329 16.6116H28.2502C27.9447 16.6116 27.7357 16.5574 27.607 16.4309C27.4784 16.3045 27.3658 16.0696 27.3015 15.7082L24.8093 4.05455L22.3332 15.6902C22.2528 16.0515 22.1563 16.2864 22.0277 16.4129C21.8991 16.5394 21.674 16.5936 21.3846 16.5936H20.0018V16.5936ZM40.6629 17.0814C39.8268 17.0814 38.9907 16.973 38.1868 16.7562C37.3829 16.5394 36.7558 16.3045 36.3378 16.0335C36.0805 15.8708 35.9036 15.6902 35.8393 15.5276C35.775 15.3649 35.7428 15.1843 35.7428 15.0217V14.1002C35.7428 13.7208 35.8715 13.5401 36.1127 13.5401C36.2091 13.5401 36.3056 13.5582 36.4021 13.5943C36.4985 13.6304 36.6433 13.7027 36.804 13.775C37.3507 14.046 37.9456 14.2628 38.5727 14.4074C39.2158 14.5519 39.8429 14.6242 40.4861 14.6242C41.499 14.6242 42.2869 14.4254 42.8336 14.0279C43.3802 13.6304 43.6696 13.0523 43.6696 12.3115C43.6696 11.8056 43.5249 11.39 43.2355 11.0468C42.9461 10.7035 42.3994 10.3963 41.6116 10.1072L39.2802 9.29419C38.1064 8.87863 37.2382 8.26433 36.7076 7.45128C36.177 6.6563 35.9036 5.77098 35.9036 4.83146C35.9036 4.07262 36.0483 3.40411 36.3378 2.82594C36.6272 2.24778 37.0131 1.74188 37.4954 1.34439C37.9778 0.928833 38.5245 0.621681 39.1676 0.404869C39.8108 0.188056 40.4861 0.0977173 41.1935 0.0977173C41.5473 0.0977173 41.9171 0.115785 42.2708 0.169988C42.6406 0.224191 42.9783 0.296462 43.3159 0.368733C43.6375 0.459072 43.943 0.549411 44.2324 0.657817C44.5218 0.766223 44.7469 0.87463 44.9077 0.983036C45.1328 1.12758 45.2936 1.27212 45.3901 1.43473C45.4865 1.57927 45.5348 1.77802 45.5348 2.03096V2.88015C45.5348 3.25957 45.4061 3.45832 45.165 3.45832C45.0363 3.45832 44.8273 3.38604 44.554 3.2415C43.6375 2.77174 42.6084 2.53686 41.4669 2.53686C40.5504 2.53686 39.8268 2.69947 39.3284 3.04276C38.83 3.38604 38.5727 3.91001 38.5727 4.65079C38.5727 5.15668 38.7335 5.59031 39.0551 5.93359C39.3766 6.27688 39.9715 6.62017 40.8237 6.92732L43.1069 7.74037C44.2646 8.15592 45.1006 8.73409 45.5991 9.47487C46.0975 10.2156 46.3387 11.0648 46.3387 12.0044C46.3387 12.7813 46.194 13.4859 45.9207 14.1002C45.6312 14.7145 45.2454 15.2565 44.7469 15.6902C44.2485 16.1419 43.6536 16.4671 42.9622 16.702C42.2386 16.9549 41.4829 17.0814 40.6629 17.0814V17.0814Z" fill="#121212"/>
<path d="M43.7017 25.8623C38.4118 30.2527 30.7262 32.5835 24.1178 32.5835C14.8565 32.5835 6.51165 28.735 0.2088 22.339C-0.28964 21.8332 0.160564 21.1466 0.755476 21.5441C7.57285 25.9887 15.982 28.6808 24.6806 28.6808C30.5493 28.6808 36.9969 27.3077 42.9299 24.4891C43.8142 24.0374 44.5699 25.1395 43.7017 25.8623Z" fill="#121212"/>
<path d="M45.9049 23.0437C45.2296 22.0681 41.435 22.574 39.7146 22.8088C39.2001 22.8811 39.1197 22.3752 39.586 21.9958C42.6088 19.6108 47.5771 20.2974 48.1559 21.0924C48.7347 21.9054 47.9951 27.4884 45.1653 30.1624C44.7311 30.578 44.3131 30.3611 44.506 29.8191C45.1492 28.0304 46.5802 24.0013 45.9049 23.0437V23.0437Z" fill="#121212"/>
</g>
<defs>
<clipPath id="clip0_76_39">
<rect width="48.3487" height="32.4891" fill="white" transform="translate(0 0.0960083)"/>
</clipPath>
</defs>
</svg>
