<svg width="53" height="21" viewBox="0 0 53 21" fill="none" xmlns="http://www.w3.org/2000/svg">
<g clip-path="url(#clip0_76_3)">
<path d="M52.5162 17.6073C52.5162 19.0557 51.2102 20.2298 49.5991 20.2298H2.91704C1.306 20.2298 0 19.0557 0 17.6073V2.62245C0 1.17411 1.306 0 2.91704 0H49.5991C51.2102 0 52.5162 1.17411 52.5162 2.62245V17.6073Z" fill="#121212"/>
<path d="M9.05771 3.17682H11.5447V13.5258C10.2689 13.7435 9.33223 13.8306 8.31491 13.8306C5.27889 13.8306 3.69629 12.5968 3.69629 10.2301C3.69629 7.9508 5.37588 6.46996 7.9758 6.46996C8.3795 6.46996 8.68631 6.49909 9.05782 6.586V3.17682H9.05771ZM9.05771 8.38613C8.76705 8.29912 8.52483 8.27008 8.21802 8.27008C6.95838 8.27008 6.23162 8.967 6.23162 10.1863C6.23162 11.377 6.92608 12.0303 8.20187 12.0303C8.47628 12.0303 8.70246 12.0158 9.05771 11.9724V8.38613Z" fill="white"/>
<path d="M15.5012 6.62947V11.8126C15.5012 13.5983 15.3559 14.4548 14.9199 15.1953C14.5161 15.9068 13.9831 16.3566 12.885 16.8503L10.5757 15.863C11.6738 15.3985 12.2067 14.9923 12.5458 14.3677C12.9012 13.729 13.0143 12.9883 13.0143 11.043V6.62947H15.5012ZM13.0143 3.18872H15.5012V5.48271H13.0143V3.18872V3.18872Z" fill="white"/>
<path d="M17.0032 7.13764C18.1014 6.67299 19.151 6.46985 20.2977 6.46985C21.5734 6.46985 22.4131 6.77471 22.7846 7.37C22.9945 7.7038 23.0591 8.13932 23.0591 9.0687V13.6127C21.9446 13.7581 20.5398 13.8596 19.5063 13.8596C17.4231 13.8596 16.4863 13.2062 16.4863 11.7546C16.4863 10.1863 17.7298 9.46057 20.7821 9.2281V8.73443C20.7821 8.32804 20.556 8.18296 19.9261 8.18296C19.0057 8.18296 17.9721 8.41514 17.0031 8.86527V7.13764H17.0032ZM20.8951 10.6946C19.2478 10.84 18.7149 11.0722 18.7149 11.6528C18.7149 12.0884 19.0219 12.2917 19.7001 12.2917C20.0716 12.2917 20.4106 12.2626 20.8951 12.1902V10.6946Z" fill="white"/>
<path d="M24.2705 6.97804C25.74 6.62944 26.9512 6.46985 28.1785 6.46985C29.4543 6.46985 30.3748 6.73097 30.9241 7.23935C31.4408 7.71823 31.6022 8.24085 31.6022 9.35904V13.7435H29.1153V9.44605C29.1153 8.58954 28.7923 8.26997 27.9042 8.26997C27.5651 8.26997 27.2583 8.2991 26.7575 8.42975V13.7434H24.2706V6.97804H24.2705Z" fill="white"/>
<path d="M32.569 14.963C33.4412 15.3694 34.3132 15.5581 35.2336 15.5581C36.8645 15.5581 37.559 14.963 37.559 13.5402C37.559 13.5257 37.559 13.5111 37.559 13.4964C37.0746 13.7143 36.59 13.8015 35.9442 13.8015C33.764 13.8015 32.375 12.5093 32.375 10.4624C32.375 7.92157 34.4261 6.48438 38.0595 6.48438C39.1255 6.48438 40.1106 6.5859 41.3056 6.80347L40.4541 8.41646C39.7919 8.30023 40.401 8.40082 39.9007 8.35727V8.58955L39.9329 9.53307L39.9489 10.7527C39.965 11.0574 39.965 11.3624 39.9813 11.6672C39.9813 11.943 39.9813 12.0738 39.9813 12.2771C39.9813 14.1935 39.8037 15.0937 39.2708 15.834C38.4956 16.9229 37.1552 17.4601 35.2496 17.4601C34.2807 17.4601 33.4411 17.3293 32.5689 17.0245V14.963H32.569ZM37.5107 8.28459C37.4784 8.28459 37.4462 8.28459 37.43 8.28459H37.2523C36.768 8.27008 36.2028 8.38612 35.815 8.60388C35.2177 8.90892 34.9106 9.46048 34.9106 10.2446C34.9106 11.3626 35.5245 12.0013 36.6225 12.0013C36.9616 12.0013 37.2363 11.9432 37.5591 11.8561V11.6964V11.0867C37.5591 10.8254 37.5431 10.5348 37.5431 10.2301L37.527 9.19927L37.5108 8.45889V8.28459H37.5107Z" fill="white"/>
<path d="M45.1665 6.44092C47.6534 6.44092 49.1715 7.84927 49.1715 10.1284C49.1715 12.4658 47.589 13.9321 45.0696 13.9321C42.5825 13.9321 41.0483 12.5239 41.0483 10.2592C41.0484 7.90706 42.6311 6.44092 45.1665 6.44092ZM45.1178 12.1319C46.0708 12.1319 46.636 11.4205 46.636 10.1863C46.636 8.96699 46.0869 8.24095 45.1343 8.24095C44.1491 8.24095 43.5837 8.95257 43.5837 10.1863C43.5838 11.4206 44.1491 12.1319 45.1178 12.1319Z" fill="white"/>
</g>
<defs>
<clipPath id="clip0_76_3">
<rect width="52.5162" height="20.2298" fill="white"/>
</clipPath>
</defs>
</svg>
