<svg width="46" height="45" viewBox="0 0 46 45" fill="none" xmlns="http://www.w3.org/2000/svg">
<g clip-path="url(#clip0_76_29)">
<path d="M6.60459 34.296L4.95459 33.342L23.3566 1.46997L25.0066 2.42397L6.60459 34.296Z" fill="#121212"/>
<path d="M4.5752 30.795H41.3822V32.703H4.5752V30.795Z" fill="#121212"/>
<path d="M23.7137 42.498L5.3042 31.869L6.2582 30.219L24.6677 40.848L23.7137 42.498ZM39.7067 14.793L21.2957 4.1655L22.2497 2.5155L40.6592 13.1445L39.7067 14.793Z" fill="#121212"/>
<path d="M6.26259 14.787L5.30859 13.137L23.7346 2.505L24.6886 4.155L6.26259 14.787Z" fill="#121212"/>
<path d="M39.3677 34.296L20.9627 2.42098L22.6127 1.46698L41.0177 33.342L39.3677 34.296ZM6.03467 11.871H7.94267V33.129H6.03467V11.871ZM38.0267 11.871H39.9347V33.129H38.0267V11.871Z" fill="#121212"/>
<path d="M23.3896 41.6895L22.5571 40.2465L38.5696 31.002L39.4021 32.445L23.3896 41.6895Z" fill="#121212"/>
<path d="M42.4622 33.75C41.9291 34.6706 41.053 35.3423 40.0257 35.6181C38.9983 35.8939 37.9036 35.7513 36.9812 35.2215C36.0606 34.6885 35.3889 33.8124 35.1131 32.785C34.8373 31.7577 34.9799 30.6629 35.5097 29.7405C36.0427 28.82 36.9188 28.1483 37.9462 27.8725C38.9735 27.5967 40.0683 27.7393 40.9907 28.269C42.9212 29.3835 43.5767 31.8315 42.4607 33.75H42.4622ZM10.4477 15.261C9.91463 16.1816 9.03849 16.8533 8.01116 17.1291C6.98383 17.4049 5.88906 17.2623 4.96666 16.7325C4.04574 16.1995 3.37371 15.3231 3.09787 14.2954C2.82204 13.2677 2.96491 12.1726 3.49516 11.25C4.02819 10.3295 4.90433 9.65778 5.93166 9.38197C6.959 9.10616 8.05376 9.24876 8.97616 9.77854C9.89668 10.3116 10.5684 11.1877 10.8442 12.215C11.12 13.2424 10.9774 14.3371 10.4477 15.2595V15.261ZM3.50716 33.75C2.97738 32.8276 2.83478 31.7329 3.11059 30.7055C3.3864 29.6782 4.05814 28.8021 4.97866 28.269C5.90106 27.7393 6.99583 27.5967 8.02316 27.8725C9.05049 28.1483 9.92663 28.82 10.4597 29.7405C10.9894 30.6629 11.132 31.7577 10.8562 32.785C10.5804 33.8124 9.90868 34.6885 8.98816 35.2215C7.05766 36.324 4.60816 35.6715 3.50716 33.7515V33.75ZM35.5217 15.2625C34.9919 14.3401 34.8493 13.2454 35.1251 12.218C35.4009 11.1907 36.0726 10.3146 36.9932 9.78154C37.9156 9.25176 39.0103 9.10916 40.0377 9.38497C41.065 9.66078 41.9411 10.3325 42.4742 11.253C43.0039 12.1754 43.1465 13.2702 42.8707 14.2975C42.5949 15.3249 41.9232 16.201 41.0027 16.734C40.0803 17.2638 38.9855 17.4064 37.9582 17.1306C36.9308 16.8548 36.0547 16.1831 35.5217 15.2625V15.2625ZM22.9847 45C22.1913 45 21.4158 44.7648 20.7561 44.324C20.0965 43.8832 19.5824 43.2566 19.2788 42.5236C18.9753 41.7906 18.896 40.9841 19.0508 40.206C19.2057 39.4279 19.5879 38.7132 20.149 38.1523C20.7101 37.5914 21.4249 37.2095 22.2031 37.0549C22.9812 36.9003 23.7878 36.98 24.5206 37.2838C25.2535 37.5876 25.8799 38.1019 26.3204 38.7617C26.761 39.4215 26.996 40.1972 26.9957 40.9905C26.9929 42.0533 26.5694 43.0718 25.8177 43.8231C25.0661 44.5745 24.0475 44.9977 22.9847 45V45ZM22.9847 8.02204C22.4577 8.02283 21.9358 7.91962 21.4488 7.71833C20.9618 7.51704 20.5193 7.22162 20.1467 6.84901C19.7741 6.4764 19.4787 6.03391 19.2774 5.54692C19.0761 5.05993 18.9729 4.538 18.9737 4.01104C18.9737 2.94746 19.3962 1.92744 20.1482 1.17537C20.9003 0.423301 21.9203 0.000793457 22.9839 0.000793457C24.0475 0.000793457 25.0675 0.423301 25.8196 1.17537C26.5717 1.92744 26.9942 2.94746 26.9942 4.01104C26.9948 4.53774 26.8914 5.05939 26.6902 5.54611C26.4889 6.03283 26.1936 6.47507 25.8211 6.84751C25.4487 7.21994 25.0065 7.51526 24.5197 7.71654C24.033 7.91783 23.5114 8.02113 22.9847 8.02054" fill="#121212"/>
</g>
<defs>
<clipPath id="clip0_76_29">
<rect width="45" height="45" fill="white" transform="translate(0.483887)"/>
</clipPath>
</defs>
</svg>
