<svg width="47" height="47" viewBox="0 0 47 47" fill="none" xmlns="http://www.w3.org/2000/svg">
<g clip-path="url(#clip0_76_49)">
<path d="M23.1481 1.08008C22.7378 1.10418 22.3365 1.21049 21.968 1.39268L5.98676 9.0155C5.15221 9.4127 4.54565 10.1684 4.33773 11.0689L0.425947 28.1772C0.239535 28.9802 0.390099 29.822 0.856129 30.5102C0.910618 30.5934 0.967976 30.6737 1.0282 30.7511L12.0695 44.4797C12.6531 45.1966 13.5293 45.6082 14.4527 45.6039H32.1619C33.0882 45.6053 33.9658 45.1737 34.548 44.4668L45.5836 30.7354C46.1629 30.0184 46.3794 29.072 46.1571 28.1744L42.2195 11.0517C42.0116 10.1512 41.4022 9.39549 40.5705 8.99829L24.6151 1.39411C24.1553 1.16735 23.646 1.05938 23.1338 1.08008H23.1481Z" fill="#9CA3AF"/>
<path d="M23.2946 6.91046C22.744 6.94918 22.3267 7.42094 22.3554 7.97158V8.24116C22.3812 8.54659 22.4271 8.84915 22.4873 9.14884C22.5753 9.72274 22.607 10.3038 22.582 10.8839C22.5275 11.0746 22.4185 11.2467 22.2694 11.3786L22.2479 11.783C21.6671 11.8317 21.0907 11.9206 20.5228 12.0497C18.1339 12.5889 15.9586 13.8278 14.2795 15.613L13.9353 15.3693C13.746 15.4266 13.5424 15.4051 13.3689 15.3119C12.9035 14.9674 12.4727 14.5784 12.0827 14.1504C11.8867 13.9163 11.6775 13.6937 11.456 13.4836L11.2438 13.3144C11.0545 13.1624 10.8222 13.075 10.5799 13.0635C10.4353 13.0558 10.2909 13.0825 10.1586 13.1413C10.0262 13.2001 9.90969 13.2894 9.81847 13.4019C9.4944 13.8565 9.60051 14.486 10.0536 14.8115L10.2515 14.9692C10.5062 15.1387 10.7705 15.2933 11.0431 15.4324C11.5507 15.7148 12.0296 16.0461 12.4741 16.4361C12.5878 16.5983 12.6539 16.789 12.6648 16.9868L12.9774 17.2735C11.2897 19.8059 10.5971 22.8731 11.0301 25.8858L10.6286 26.0005C10.524 26.1668 10.3849 26.3088 10.2185 26.4135C9.65837 26.5631 9.08495 26.6577 8.50642 26.696C8.19939 26.7022 7.89297 26.7261 7.5887 26.7676L7.33489 26.825H7.30621C7.13008 26.8495 6.96418 26.9223 6.827 27.0354C6.68981 27.1486 6.58672 27.2976 6.5292 27.4658C6.47167 27.6341 6.46198 27.815 6.50118 27.9885C6.54039 28.1619 6.62697 28.3211 6.75128 28.4482C6.87674 28.5747 7.03492 28.6639 7.20812 28.7056C7.38133 28.7474 7.56274 28.7402 7.73209 28.6848H7.75073L8.00884 28.6561C8.29993 28.5701 8.58672 28.464 8.86634 28.3435C9.40406 28.1285 9.96187 27.9636 10.5326 27.856C10.7305 27.8675 10.9197 27.9349 11.0803 28.0496L11.5105 27.9779C12.4426 30.8701 14.4013 33.3208 17.0168 34.8651L16.8419 35.2308C16.9222 35.3985 16.9523 35.5849 16.9279 35.7699C16.6913 36.3177 16.4017 36.8425 16.0633 37.3358C15.8776 37.5805 15.7062 37.8357 15.5499 38.1001L15.428 38.3582C15.3396 38.5116 15.2953 38.6864 15.3 38.8634C15.3047 39.0405 15.3582 39.2127 15.4546 39.3612C15.551 39.5097 15.6866 39.6287 15.8464 39.705C16.0062 39.7813 16.184 39.8119 16.3601 39.7936C16.5366 39.7737 16.7042 39.7053 16.8442 39.5959C16.9842 39.4866 17.0911 39.3406 17.1531 39.1741L17.2721 38.9303C17.3811 38.6435 17.4728 38.351 17.5474 38.0556C17.8012 37.429 17.9389 36.7565 18.2859 36.3406C18.3993 36.234 18.5422 36.164 18.696 36.1399L18.9111 35.7484C21.7463 36.8382 24.8835 36.8458 27.7241 35.7699L27.9148 36.1356C28.1098 36.1643 28.2847 36.2718 28.4023 36.4295C28.6719 36.9429 28.8899 37.4806 29.0562 38.0355C29.132 38.3327 29.2249 38.6252 29.3344 38.9117L29.4534 39.1554C29.516 39.3213 29.6232 39.4666 29.7633 39.5752C29.9033 39.6839 30.0707 39.7517 30.2469 39.7711C30.423 39.7906 30.6012 39.7609 30.7615 39.6854C30.9219 39.6099 31.0582 39.4915 31.1555 39.3433C31.2518 39.1942 31.3049 39.0214 31.3089 38.8439C31.313 38.6665 31.2678 38.4914 31.1784 38.3381L31.0537 38.08C30.8974 37.8165 30.726 37.5623 30.5403 37.3186C30.2105 36.8425 29.9266 36.3349 29.68 35.8029C29.6569 35.7056 29.6537 35.6047 29.6705 35.5062C29.6872 35.4077 29.7236 35.3135 29.7775 35.2293C29.7163 35.1043 29.6631 34.9754 29.6183 34.8436C32.2281 33.2878 34.1782 30.8286 35.1003 27.932L35.5075 28.0037C35.6538 27.8703 35.8459 27.8001 36.0424 27.8058C36.6116 27.9148 37.1694 28.0926 37.7086 28.2934C37.9882 28.4224 38.275 28.5314 38.5661 28.6232C38.6349 28.6418 38.7353 28.6576 38.8127 28.6762H38.8314C39.0006 28.7309 39.1817 28.7375 39.3545 28.6953C39.5273 28.6531 39.6849 28.5638 39.81 28.4373C39.935 28.3108 40.0224 28.1521 40.0626 27.9788C40.1027 27.8055 40.094 27.6245 40.0373 27.4559C39.9793 27.2875 39.8757 27.1385 39.738 27.0256C39.6002 26.9126 39.4338 26.8402 39.2572 26.8164L38.9791 26.7504C38.6748 26.7089 38.3684 26.685 38.0613 26.6787C37.482 26.6415 36.9085 26.5468 36.3492 26.3963C36.1771 26.3002 36.0337 26.1568 35.9362 25.9833L35.5491 25.8686C35.9619 22.8573 35.2547 19.7992 33.5616 17.275L33.9 16.9624C33.8857 16.7659 33.9502 16.5709 34.0779 16.4203C34.5181 16.0418 34.9956 15.7077 35.4975 15.4223C35.7699 15.2832 36.0342 15.1286 36.289 14.9592L36.4983 14.79C36.6525 14.6943 36.7764 14.5569 36.8557 14.3938C36.935 14.2306 36.9666 14.0483 36.9466 13.868C36.9267 13.6877 36.8561 13.5167 36.743 13.3748C36.6299 13.233 36.479 13.126 36.3076 13.0664C36.1364 13.0068 35.9519 12.9968 35.7753 13.0377C35.5987 13.0785 35.4372 13.1685 35.3096 13.2972L35.0974 13.4664C34.8759 13.6765 34.6667 13.8992 34.4708 14.1332C34.0922 14.5663 33.6735 14.9606 33.2189 15.3133C33.0355 15.388 32.8348 15.4099 32.6396 15.3764L32.2768 15.6345C30.1833 13.4406 27.3627 12.0784 24.34 11.8059C24.34 11.6625 24.3213 11.4474 24.3185 11.38C24.1564 11.2682 24.0431 11.0976 24.0059 10.904C23.986 10.3249 24.0225 9.74524 24.1148 9.17322C24.1765 8.87209 24.2195 8.57096 24.2468 8.26553V7.97875C24.2754 7.42811 23.8596 6.95635 23.3075 6.91763L23.2946 6.91046ZM22.0987 14.3182L21.8119 19.3269H21.7904C21.7761 19.6367 21.594 19.9005 21.3144 20.0496C21.0347 20.1988 20.7035 20.1543 20.454 19.9722L16.3458 17.0613C17.6534 15.777 19.2938 14.8835 21.0821 14.4817C21.4176 14.41 21.756 14.3555 22.0959 14.3182H22.0987ZM24.4905 14.3182C26.6486 14.5863 28.6576 15.5557 30.212 17.0771L26.1424 19.9693C25.8915 20.1701 25.5474 20.2102 25.2563 20.0726C24.9652 19.9349 24.7788 19.6424 24.7745 19.3212L24.4905 14.3182ZM14.8545 18.9455L18.6114 22.2981V22.3196C18.8451 22.5232 18.9469 22.8401 18.8781 23.1427C18.8093 23.4452 18.577 23.6847 18.2801 23.7664V23.7808L13.4592 25.1674C13.2207 22.9954 13.7121 20.8058 14.8559 18.9441L14.8545 18.9455ZM31.7076 18.9455C32.849 20.8025 33.3537 22.9806 33.1444 25.1502L28.3163 23.7592V23.7406C28.0152 23.6589 27.7857 23.4194 27.7183 23.1168C27.6509 22.8143 27.7513 22.5002 27.985 22.2938L31.7133 18.957L31.7076 18.9455ZM22.5246 22.559H24.0618L25.001 23.7521L24.6597 25.2434L23.2789 25.9073L21.8951 25.2434L21.5696 23.7521L22.5246 22.559ZM27.4488 26.6286C27.5133 26.6214 27.5921 26.6214 27.6423 26.6286L32.6138 27.4674C31.8968 29.5323 30.4815 31.296 28.6346 32.4762L26.7131 27.8245C26.6603 27.6997 26.6382 27.564 26.6488 27.4289C26.6593 27.2938 26.7021 27.1632 26.7737 27.0481C26.8452 26.933 26.9433 26.8367 27.0598 26.7675C27.1763 26.6982 27.3077 26.658 27.443 26.6501L27.4488 26.6286ZM19.0989 26.6501C19.38 26.6544 19.6395 26.7992 19.793 27.0344C19.9464 27.2695 19.9708 27.5649 19.8603 27.823V27.8417L17.9503 32.4561C16.1221 31.2846 14.734 29.5423 13.9955 27.499L18.924 26.663C18.9785 26.6572 19.0344 26.6572 19.0903 26.663L19.0989 26.6501ZM23.2631 28.6576C23.4197 28.6526 23.5747 28.6913 23.7107 28.7693C23.8466 28.8473 23.9583 28.9615 24.0331 29.0992H24.0518L26.4808 33.4828L25.5101 33.7696C23.7234 34.1782 21.8578 34.0822 20.1213 33.4914L22.559 29.1078C22.7067 28.8497 22.9792 28.692 23.276 28.6848L23.2631 28.6576Z" fill="white" stroke="white" stroke-width="0.11"/>
</g>
<defs>
<clipPath id="clip0_76_49">
<rect width="45.886" height="45.886" fill="white" transform="translate(0.348633 0.397522)"/>
</clipPath>
</defs>
</svg>
