<svg width="24" height="51" viewBox="0 0 24 51" fill="none" xmlns="http://www.w3.org/2000/svg">
<path d="M16.0167 5.91783C13.947 3.43569 12.1637 0.897161 11.8016 0.376238C11.7941 0.365234 11.7841 0.356241 11.7724 0.35003C11.7608 0.343819 11.7478 0.340575 11.7346 0.340576C11.7215 0.340577 11.7085 0.343823 11.6968 0.350036C11.6851 0.356249 11.6751 0.365243 11.6676 0.376249C11.3056 0.897184 9.52275 3.4357 7.45314 5.91783C-10.2858 28.8848 10.2529 44.3802 10.2529 44.3802L10.4194 44.4978C10.5751 46.8951 10.962 50.3406 10.962 50.3406H12.5077C12.5077 50.3406 12.8929 46.91 13.0493 44.5133L13.2169 44.3802C13.2169 44.3802 33.7554 28.8848 16.0167 5.91783ZM11.7349 44.0434H11.7348C11.7348 44.0434 10.814 43.2452 10.5655 42.8453L10.5633 42.8023L11.677 17.7979C11.6777 17.7828 11.684 17.7685 11.6948 17.758C11.7056 17.7475 11.72 17.7417 11.7349 17.7417C11.7498 17.7417 11.7641 17.7475 11.7749 17.758C11.7857 17.7685 11.7921 17.7828 11.7928 17.7979L12.9065 42.8023L12.9043 42.8452C12.6559 43.245 11.7349 44.0434 11.7349 44.0434Z" fill="#9CA3AF"/>
</svg>
