<svg width="46" height="45" viewBox="0 0 46 45" fill="none" xmlns="http://www.w3.org/2000/svg">
<path d="M26.9804 0C26.655 0 26.3529 0.0700045 26.0739 0.163339C26.6666 0.560018 26.992 1.08504 27.1547 1.68006C27.1664 1.76173 27.1896 1.82007 27.2012 1.90173C27.2129 1.97174 27.2245 2.04174 27.2245 2.11174C27.271 3.13844 26.9572 3.26678 26.7364 3.87347C26.3993 4.65516 26.4923 5.49519 26.8991 6.17188C26.9339 6.25355 26.9804 6.34689 27.0385 6.42856C26.5969 3.47679 29.049 3.03344 29.5022 2.11174C29.5371 1.30671 28.8747 0.770027 28.3517 0.39668C27.852 0.0933368 27.3988 0 26.9804 0ZM30.676 0.665023C30.6295 0.933366 30.6643 0.863363 30.6528 1.00337C30.6411 1.0967 30.6411 1.21338 30.6295 1.30671C30.6063 1.40005 30.583 1.49338 30.5482 1.58672C30.525 1.68006 30.4901 1.7734 30.4552 1.86673C30.4087 1.96007 30.3739 2.04174 30.3274 2.13507C30.2925 2.18176 30.2693 2.22841 30.2344 2.27508C30.2112 2.31008 30.1879 2.34508 30.1647 2.38008C30.1066 2.46176 30.0485 2.54342 29.9904 2.61342C29.9206 2.68343 29.8625 2.76509 29.7812 2.82343C29.7812 2.83512 29.7812 2.83512 29.7812 2.83512C29.7114 2.89345 29.6417 2.96345 29.5604 3.02179C29.3163 3.20846 29.0374 3.34847 28.7817 3.52347C28.7004 3.58181 28.619 3.62848 28.5493 3.69848C28.468 3.75681 28.3982 3.81515 28.3285 3.88515C28.2472 3.95515 28.1891 4.02516 28.1193 4.10683C28.0612 4.17683 27.9915 4.2585 27.945 4.34017C27.8869 4.42184 27.8288 4.50351 27.7823 4.58518C27.7358 4.67851 27.701 4.76018 27.6545 4.85352C27.6196 4.94685 27.5847 5.02852 27.5615 5.12186C27.5266 5.22686 27.5034 5.3202 27.4802 5.41354C27.4685 5.46023 27.4685 5.51854 27.4569 5.56521C27.4453 5.6119 27.4453 5.65854 27.4337 5.70522C27.4337 5.79855 27.4221 5.90356 27.4221 5.99689C27.4221 6.06689 27.4221 6.1369 27.4337 6.2069C27.4337 6.30024 27.4453 6.39357 27.4686 6.49858C27.4802 6.59191 27.5034 6.68525 27.5267 6.77859C27.5615 6.87192 27.5848 6.96526 27.6196 7.05859C27.6429 7.11693 27.6778 7.17527 27.701 7.22193L25.0281 6.18356C24.5749 6.05523 24.1333 5.93856 23.68 5.83355C23.436 5.77522 23.1919 5.71688 22.9479 5.65855C22.2506 5.51854 21.5417 5.41354 20.8328 5.34354C20.8096 5.34354 20.7979 5.33186 20.7747 5.33186C20.0774 5.26185 19.3918 5.22685 18.6945 5.22685C18.1831 5.22685 17.6718 5.25017 17.1721 5.28519C16.4632 5.33187 15.7543 5.42519 15.0454 5.54186C14.8711 5.56518 14.6967 5.6002 14.5224 5.6352C14.1622 5.7052 13.8135 5.78687 13.4765 5.86854C13.3022 5.91523 13.1279 5.96188 12.9535 6.00854C12.7792 6.07855 12.6165 6.16022 12.4538 6.23022C12.326 6.28855 12.1982 6.34689 12.0703 6.40523C12.0471 6.41691 12.0238 6.41691 12.0122 6.42854C11.896 6.48688 11.7914 6.53354 11.6868 6.59188C11.652 6.60357 11.6287 6.6152 11.6055 6.62688C11.4776 6.68522 11.3498 6.75522 11.2452 6.81356C11.1639 6.84856 11.0825 6.89523 11.0128 6.93023C10.9779 6.95354 10.9314 6.97691 10.9082 6.98856C10.8036 7.0469 10.699 7.10523 10.606 7.16357C10.5014 7.2219 10.4085 7.28024 10.3271 7.33857C10.2458 7.39691 10.1644 7.44358 10.0947 7.50191C10.0831 7.51359 10.0715 7.51359 10.0598 7.52523C9.9901 7.57191 9.90876 7.63023 9.83903 7.68857C9.83903 7.68857 9.82739 7.70025 9.81581 7.71189C9.7577 7.75857 9.69959 7.80522 9.64148 7.85189C9.61826 7.86357 9.59498 7.88689 9.57176 7.89857C9.51365 7.94526 9.45555 8.00358 9.39744 8.05025C9.3858 8.07356 9.36258 8.08525 9.35094 8.09694C9.28121 8.16694 9.21148 8.22527 9.14175 8.29527C9.13011 8.29527 9.13011 8.30696 9.11853 8.31859C9.0488 8.37693 8.97907 8.44693 8.90934 8.51693C8.8977 8.52861 8.8977 8.54025 8.88612 8.54025C8.82801 8.59858 8.76991 8.65692 8.7118 8.72692C8.68857 8.75023 8.65369 8.77361 8.63045 8.79692C8.57235 8.86692 8.50262 8.93693 8.43289 9.00693C8.42125 9.03024 8.39802 9.04193 8.38638 9.06526C8.29341 9.1586 8.21206 9.25194 8.11909 9.34528C8.10745 9.35696 8.09587 9.36859 8.08423 9.38028C7.89829 9.57862 7.70072 9.77696 7.49154 9.95196C7.28236 10.1386 7.06155 10.3136 6.84075 10.4653C6.60832 10.6287 6.38752 10.7687 6.14347 10.9087C5.91104 11.037 5.66699 11.1537 5.41133 11.2587C5.16728 11.3637 4.91161 11.457 4.65594 11.5387C4.16784 11.6437 3.66813 11.842 3.23814 11.877C3.14517 11.877 3.04058 11.9003 2.94761 11.912C2.84301 11.9353 2.75004 11.9587 2.65707 11.982C2.56411 12.017 2.47113 12.052 2.37816 12.087C2.28519 12.122 2.19222 12.1687 2.09925 12.2154C2.0179 12.2737 1.92493 12.3204 1.84358 12.3787C1.76223 12.437 1.68088 12.507 1.61115 12.5771C1.52981 12.6354 1.44846 12.7171 1.37873 12.7871C1.309 12.8687 1.23927 12.9387 1.18116 13.0204C1.12306 13.1137 1.05333 13.1954 1.00684 13.2887C0.948739 13.3704 0.890633 13.4637 0.844146 13.5571C0.797642 13.6621 0.751177 13.7554 0.716312 13.8604C0.681448 13.9538 0.646584 14.0588 0.61172 14.1638C0.588495 14.2571 0.565216 14.3504 0.553615 14.4438C0.553615 14.4555 0.541975 14.4671 0.541975 14.4788C0.518751 14.5838 0.518751 14.7238 0.507111 14.7938C0.495472 14.8755 0.483887 14.9455 0.483887 15.0271C0.483887 15.0738 0.483887 15.1321 0.495526 15.1788C0.507165 15.2605 0.51875 15.3305 0.54203 15.4005C0.565254 15.4705 0.588534 15.5405 0.623376 15.6105C0.623376 15.6222 0.623376 15.6222 0.623376 15.6222C0.65824 15.6922 0.704728 15.7622 0.75121 15.8322C0.797713 15.9022 0.844184 15.9722 0.90229 16.0422C0.960395 16.1005 1.03012 16.1705 1.09985 16.2289C1.16958 16.2989 1.23931 16.3572 1.32065 16.4155C1.59957 16.6605 1.6693 16.7422 2.02956 16.9289C2.08766 16.9639 2.14577 16.9872 2.2155 17.0222C2.22714 17.0222 2.23873 17.0339 2.25037 17.0339C2.25037 17.0572 2.25037 17.0689 2.26201 17.0923C2.27365 17.1856 2.29687 17.2789 2.32011 17.3723C2.34334 17.4773 2.37822 17.5706 2.41309 17.6523C2.44795 17.7223 2.47119 17.7923 2.50606 17.8623C2.5177 17.8856 2.52928 17.909 2.54092 17.9206C2.58742 18.0139 2.63389 18.0956 2.68037 18.1773C2.73848 18.259 2.79659 18.3406 2.85469 18.4223C2.9128 18.4923 2.98253 18.574 3.05225 18.644C3.12198 18.714 3.19171 18.7723 3.27306 18.8423C3.27306 18.8423 3.2847 18.854 3.29629 18.854C3.36602 18.9123 3.43574 18.9707 3.50547 19.0173C3.58682 19.0757 3.66817 19.1223 3.76114 19.169C3.84249 19.2157 3.93546 19.2624 4.02843 19.2974C4.09816 19.3324 4.17951 19.3557 4.26086 19.379C4.2725 19.3907 4.28408 19.3907 4.30736 19.4023C4.35386 19.414 4.41195 19.4257 4.45844 19.4373C4.42357 20.0674 4.41193 20.6624 4.50494 20.8724C4.60953 21.1057 5.12087 20.394 5.63221 19.5774C5.56248 20.3824 5.51599 21.3274 5.63221 21.6074C5.76004 21.8991 6.45732 20.9891 7.06163 19.9857C15.3011 18.0723 22.8201 23.7892 23.6104 31.8628C23.4593 30.6027 21.9137 29.9027 21.2048 30.0777C20.8561 30.9411 20.2634 32.0494 19.3105 32.7378C19.3919 31.9678 19.357 31.1744 19.1943 30.4044C18.9386 31.4778 18.4389 32.4811 17.7532 33.3445C16.6492 33.4262 15.5452 32.8895 14.9641 32.0845C14.9176 32.0494 14.906 31.9794 14.8711 31.9328C14.8363 31.8511 14.8014 31.7694 14.7782 31.6878C14.7433 31.6061 14.7201 31.5244 14.7085 31.4428C14.6968 31.3611 14.6968 31.2794 14.6968 31.1861C14.6968 31.1277 14.6968 31.0694 14.6968 31.0111C14.7085 30.9294 14.7317 30.8477 14.7549 30.7661C14.7781 30.6844 14.8014 30.6027 14.8363 30.5211C14.8828 30.4394 14.9176 30.3577 14.9757 30.2761C15.1733 29.716 15.1733 29.261 14.813 28.9927C14.7433 28.946 14.6736 28.911 14.5922 28.876C14.5457 28.8643 14.4876 28.841 14.4411 28.8293C14.4063 28.8176 14.383 28.806 14.3482 28.7943C14.2668 28.771 14.1855 28.7476 14.1041 28.736C14.0228 28.7127 13.9414 28.701 13.8601 28.701C13.7787 28.6893 13.6858 28.6777 13.6044 28.6777C13.5463 28.6777 13.4882 28.6893 13.4301 28.6893C13.3371 28.6893 13.2558 28.701 13.1744 28.7243C13.0931 28.736 13.0117 28.7477 12.9304 28.771C12.849 28.7943 12.7677 28.8177 12.6863 28.8527C12.605 28.8877 12.5352 28.9227 12.4539 28.9577C12.3842 28.9927 12.3144 29.0394 12.2331 29.0744C9.52532 30.8478 11.1407 35.0012 12.9885 36.203C12.2912 36.3313 11.5823 36.483 11.3847 36.6346C11.3731 36.6463 11.3615 36.658 11.3615 36.658C11.8612 36.9613 12.3842 37.218 12.9304 37.4396C13.6742 37.6847 14.4644 37.9063 14.813 37.9997V38.0114C15.7776 38.2097 16.7538 38.2797 17.7416 38.2214C22.8899 37.8597 27.1084 33.9279 27.8754 28.7477C27.8986 28.8527 27.9219 28.946 27.9451 29.051C27.98 29.261 28.0265 29.4827 28.0497 29.7044C28.0497 29.7044 28.0497 29.7044 28.0497 29.7161C28.073 29.8211 28.0846 29.9261 28.0962 30.0194C28.0962 30.0428 28.0962 30.0544 28.0962 30.0661C28.1079 30.1711 28.1195 30.2761 28.1195 30.3695C28.1311 30.4978 28.1427 30.6261 28.1427 30.7545C28.1427 30.8128 28.1427 30.8712 28.1427 30.9412C28.1427 30.9995 28.1543 31.0695 28.1543 31.1278C28.1543 31.1978 28.1427 31.2678 28.1427 31.3378C28.1427 31.3962 28.1427 31.4545 28.1427 31.5012C28.1427 31.5828 28.131 31.6528 28.131 31.7345C28.131 31.7812 28.131 31.8279 28.1194 31.8862C28.1194 31.9679 28.1078 32.0495 28.1078 32.1429C28.0961 32.1779 28.0961 32.2129 28.0961 32.2479C28.0845 32.3412 28.0729 32.4229 28.0612 32.5162C28.0612 32.5512 28.0612 32.5862 28.0496 32.6212C28.0379 32.7379 28.0147 32.8429 28.0031 32.9596V32.9713V32.9829C27.9799 33.0879 27.9566 33.2046 27.9334 33.3096C27.9334 33.3213 27.9334 33.3329 27.9334 33.3446C27.9101 33.4496 27.8869 33.5546 27.8636 33.6596C27.8636 33.6713 27.852 33.6946 27.852 33.7063C27.8288 33.8113 27.8055 33.9163 27.7707 34.0213C27.7707 34.033 27.7707 34.0446 27.7707 34.0563C27.7358 34.173 27.7009 34.278 27.6777 34.383C27.6661 34.3947 27.6661 34.4063 27.6661 34.4063C27.6312 34.523 27.5963 34.6397 27.5615 34.7563C27.515 34.873 27.4801 34.978 27.4336 35.0947C27.3871 35.2113 27.3523 35.328 27.3058 35.433C27.2593 35.5497 27.2128 35.6547 27.1663 35.7714H27.1547C27.1082 35.8764 27.0617 35.993 27.0036 36.0981C26.992 36.133 26.9804 36.1564 26.9687 36.1797C26.9571 36.1914 26.9571 36.203 26.9455 36.2147C26.1901 37.7431 25.0745 39.0848 23.6799 40.1349C23.587 40.1932 23.494 40.2632 23.401 40.3332C23.3778 40.3565 23.3429 40.3682 23.3197 40.3915C23.2383 40.4499 23.157 40.5082 23.064 40.5665L23.0989 40.6365H23.1105C23.2732 40.6132 23.4359 40.5899 23.5986 40.5665H23.6102C23.9124 40.5198 24.2145 40.4615 24.5167 40.4032C24.598 40.3915 24.691 40.3682 24.7724 40.3449C24.8305 40.3332 24.877 40.3215 24.9351 40.3099C25.0164 40.2982 25.0978 40.2749 25.1791 40.2632C25.2488 40.2399 25.3186 40.2282 25.3883 40.2048C26.5504 39.9248 27.6777 39.5398 28.7585 39.0848C26.9107 41.6165 24.4353 43.6583 21.5416 45C22.8781 44.9067 24.2145 44.685 25.5045 44.3116C30.1879 42.9233 34.1275 39.7615 36.4866 35.503C36.0102 38.1981 34.941 40.7649 33.3605 43.0049C34.4878 42.2582 35.5221 41.3949 36.4634 40.4148C39.0666 37.6847 40.7749 34.2196 41.356 30.4978C41.7511 32.3412 41.8673 34.243 41.693 36.1214C50.0836 24.3726 42.3903 12.1922 39.1712 8.98375C39.1595 8.96043 39.148 8.94875 39.148 8.92541C39.1363 8.9371 39.1363 8.93709 39.1363 8.94873C39.1363 8.93705 39.1363 8.93705 39.1247 8.92541C39.1247 9.06542 39.113 9.20542 39.1014 9.34543C39.0666 9.61377 39.0317 9.87044 38.9852 10.1271C38.9271 10.3838 38.8574 10.6405 38.7877 10.8971C38.7063 11.1422 38.6133 11.3988 38.5087 11.6438C38.4042 11.8772 38.2879 12.1222 38.1601 12.3555C38.0323 12.5772 37.8928 12.8105 37.7417 13.0206C37.5907 13.2422 37.428 13.4522 37.2653 13.6506C37.0909 13.8606 36.905 14.0473 36.7191 14.2339C36.6029 14.3389 36.4983 14.4323 36.382 14.5256C36.2891 14.6073 36.2077 14.6773 36.1148 14.7589C35.9056 14.9223 35.6964 15.074 35.464 15.214C35.2432 15.354 35.0107 15.494 34.7783 15.6106C34.5343 15.7273 34.2902 15.8323 34.0462 15.9373C33.8021 16.0307 33.5464 16.1123 33.2908 16.1823C33.0351 16.2523 32.7678 16.3107 32.5121 16.3573C32.2449 16.404 31.9776 16.4273 31.7219 16.4507C31.536 16.4624 31.35 16.474 31.1641 16.474C30.8968 16.474 30.6295 16.4507 30.3738 16.4273C30.1065 16.404 29.8392 16.369 29.5836 16.3106C29.3163 16.2639 29.0606 16.194 28.8049 16.1123H28.7933C29.049 16.089 29.3047 16.0656 29.5603 16.019C29.8276 15.9723 30.0833 15.914 30.3389 15.8439C30.5946 15.7739 30.8503 15.6923 31.0943 15.5989C31.35 15.5056 31.5941 15.3889 31.8265 15.2723C32.0705 15.1556 32.2913 15.0273 32.5238 14.8872C32.7446 14.7356 32.9654 14.5839 33.1745 14.4206C33.3837 14.2572 33.5813 14.0822 33.7672 13.8955C33.9648 13.7205 34.1391 13.5222 34.3134 13.3239C34.4878 13.1139 34.6505 12.9038 34.8015 12.6938C34.8248 12.6588 34.848 12.6122 34.8713 12.5772C34.9875 12.3905 35.1037 12.2038 35.2083 12.0171C35.3361 11.7838 35.4523 11.5505 35.5569 11.3055C35.6615 11.0604 35.7545 10.8154 35.8358 10.5588C35.9172 10.3138 35.9753 10.0571 36.0334 9.80041C36.0799 9.53206 36.1264 9.27538 36.1496 9.01871C36.1728 8.75037 36.1961 8.48202 36.1961 8.22535C36.1961 8.03868 36.1845 7.852 36.1729 7.66533C36.1497 7.39699 36.1148 7.14031 36.0799 6.88364C36.0334 6.61529 35.9753 6.35862 35.9056 6.10194C35.8242 5.85694 35.7429 5.60026 35.6499 5.35525C35.557 5.11024 35.4407 4.86523 35.3245 4.63189C35.1967 4.39855 35.0689 4.16521 34.9294 3.94354C34.7783 3.72186 34.6272 3.51186 34.4645 3.30185C34.2902 3.10351 34.1159 2.90517 33.93 2.70683C33.837 2.61349 33.7324 2.50849 33.6278 2.41515C33.1049 2.0068 32.5587 1.62179 32.0125 1.27178C31.9311 1.22509 31.8614 1.19011 31.78 1.1551C31.3965 0.910097 31.0363 0.781755 30.676 0.665088L30.676 0.665023Z" fill="#121212"/>
</svg>
