<svg width="46" height="45" viewBox="0 0 46 45" fill="none" xmlns="http://www.w3.org/2000/svg">
<path d="M21.5103 0.0121097C21.4135 0.020906 21.1056 0.0516933 20.8285 0.0736842C14.437 0.649846 8.45016 4.09802 4.65837 9.39783C2.54694 12.3446 1.1965 15.6872 0.686233 19.2278C0.505881 20.4637 0.483887 20.8287 0.483887 22.5044C0.483887 24.1801 0.505881 24.5452 0.686233 25.781C1.90911 34.23 7.9223 41.3286 16.0777 43.9587C17.5381 44.4293 19.0777 44.7504 20.8285 44.9439C21.5103 45.0187 24.4575 45.0187 25.1393 44.9439C28.1613 44.6097 30.7214 43.862 33.2464 42.5733C33.6334 42.3754 33.7082 42.3226 33.6554 42.2786C33.6203 42.2522 31.9707 40.04 29.9912 37.3659L26.393 32.5059L21.8842 25.8338C19.4032 22.1657 17.3622 19.1662 17.3446 19.1662C17.327 19.1618 17.3094 22.1262 17.3006 25.7459C17.2874 32.0836 17.283 32.3387 17.2038 32.4883C17.0895 32.7038 17.0015 32.7917 16.8167 32.8885C16.676 32.9589 16.5528 32.9721 15.8886 32.9721H15.1276L14.9252 32.8445C14.7933 32.761 14.6965 32.651 14.6305 32.5235L14.5381 32.3255L14.5469 23.5072L14.5601 14.6844L14.6965 14.5129C14.7669 14.4205 14.9164 14.3018 15.022 14.2446C15.2024 14.1567 15.2727 14.1479 16.0337 14.1479C16.9311 14.1479 17.0807 14.183 17.3138 14.4381C17.3798 14.5085 19.8211 18.1854 22.742 22.6144C25.6628 27.0433 29.6569 33.0908 31.6188 36.0596L35.1818 41.4562L35.3622 41.3374C36.959 40.2994 38.6481 38.8217 39.9854 37.2823C42.8314 34.0144 44.6657 30.0297 45.2815 25.781C45.4619 24.5452 45.4839 24.1801 45.4839 22.5044C45.4839 20.8287 45.4619 20.4637 45.2815 19.2278C44.0587 10.7789 38.0455 3.68019 29.89 1.05008C28.4516 0.583873 26.9208 0.262806 25.2053 0.069286C24.783 0.0253042 21.8754 -0.0230758 21.5103 0.0121097ZM30.7214 13.6201C30.9326 13.7256 31.1041 13.928 31.1657 14.1391C31.2009 14.2534 31.2097 16.6988 31.2009 22.2097L31.1877 30.1177L29.7933 27.9801L28.3944 25.8426V20.0942C28.3944 16.3777 28.412 14.2886 28.4384 14.1874C28.5088 13.9411 28.6628 13.7476 28.8739 13.6333C29.0543 13.5409 29.1202 13.5321 29.8109 13.5321C30.4619 13.5321 30.5763 13.5409 30.7214 13.6201Z" fill="#121212"/>
</svg>
