<svg width="48" height="48" viewBox="0 0 48 48" fill="none" xmlns="http://www.w3.org/2000/svg">
<path d="M20.0767 15.353C19.5847 15.2866 19.1391 15.3481 18.9137 15.5136C18.787 15.6067 18.7477 15.7146 18.7371 15.7888C18.7088 15.9855 18.8509 16.2031 18.9383 16.3152C19.1854 16.6328 19.5463 16.851 19.9036 16.8991C19.9554 16.9062 20.007 16.9094 20.0582 16.9094C20.654 16.9094 21.1957 16.4596 21.2435 16.1276C21.3031 15.7117 20.6806 15.4346 20.0767 15.3532V15.353ZM36.3769 15.3662C36.3299 15.0403 35.7318 14.9474 35.1641 15.0239C34.5972 15.1004 34.0475 15.3486 34.0934 15.6752C34.1301 15.9293 34.6032 16.3629 35.1632 16.3629C35.2106 16.3629 35.2583 16.3599 35.3064 16.3533C35.6802 16.3031 35.9545 16.0729 36.0848 15.9403C36.2831 15.7381 36.398 15.5127 36.3769 15.3662" fill="#121212"/>
<path d="M45.7296 29.327C45.5214 28.7166 44.8513 28.5203 43.7379 28.7432C40.4323 29.4047 39.2485 28.9465 38.8599 28.6689C41.4293 24.8737 43.543 20.286 44.6833 16.0057C45.2234 13.9781 45.5217 12.0951 45.5462 10.5603C45.5731 8.87573 45.2772 7.63783 44.6669 6.88163C42.2064 3.83317 38.5951 2.19794 34.2238 2.15308C31.2185 2.12033 28.6794 2.86602 28.1872 3.07572C27.1506 2.82579 26.0206 2.67235 24.7903 2.65277C22.5343 2.61734 20.5842 3.14105 18.9697 4.2086C18.2683 3.95546 16.4559 3.35218 14.2394 3.00594C10.4074 2.40782 7.36233 2.86104 5.18931 4.35368C2.59642 6.13487 1.39939 9.3188 1.63127 13.8168C1.70929 15.3301 2.59862 19.9855 4.00201 24.4438C5.84933 30.3118 7.85748 33.6337 9.97028 34.3171C10.2176 34.397 10.5027 34.4529 10.8172 34.4529C11.5879 34.4529 12.5329 34.1161 13.516 32.9701C14.7152 31.5753 15.9556 30.2143 17.2358 28.889C18.0664 29.3212 18.9789 29.5626 19.9121 29.5868C19.9139 29.6104 19.9163 29.6341 19.9185 29.6576C19.7579 29.8434 19.6005 30.0318 19.4467 30.2228C18.8 31.0187 18.6655 31.1844 16.5841 31.5999C15.992 31.7185 14.4195 32.0327 14.3964 33.1014C14.3714 34.2692 16.2552 34.7596 16.4699 34.8116C17.2178 34.9932 17.9384 35.0827 18.6256 35.0827C20.2969 35.0827 21.7676 34.5501 22.943 33.5196C22.9068 37.6826 23.0859 41.7847 23.6014 43.0345C24.0236 44.0578 25.0551 46.5583 28.3131 46.5581C28.7912 46.5581 29.3174 46.5042 29.8963 46.3838C33.2966 45.6771 34.7732 44.2199 35.3444 41.0073C35.6501 39.2904 36.1746 35.1906 36.4214 32.9914C36.942 33.149 37.6123 33.2211 38.337 33.2209C39.8483 33.2209 41.5923 32.9095 42.686 32.4173C43.9146 31.8641 46.1316 30.5066 45.7296 29.327V29.327ZM37.632 14.4666C37.6208 15.1158 37.5286 15.7052 37.4309 16.3204C37.3257 16.9821 37.2171 17.6662 37.1897 18.4966C37.1627 19.3048 37.2668 20.145 37.3674 20.9576C37.5708 22.5989 37.7796 24.2886 36.9716 25.9558C36.8374 25.7253 36.7178 25.4869 36.6136 25.2422C36.5132 25.0062 36.2951 24.627 35.993 24.1022C34.8182 22.0593 32.0671 17.2754 33.4754 15.3233C33.8949 14.7423 34.9596 14.1449 37.632 14.4666V14.4666ZM34.3927 3.46771C38.3094 3.55155 41.4078 4.97227 43.6014 7.69016C45.2838 9.77487 43.4312 19.2606 38.0678 27.444C38.0139 27.3775 37.9597 27.3113 37.9052 27.2452L37.8372 27.1629C39.2232 24.9437 38.9522 22.7479 38.711 20.8011C38.6118 20.0022 38.5182 19.2476 38.5421 18.5388C38.5667 17.7876 38.6691 17.1432 38.7682 16.5201C38.89 15.7523 39.0139 14.9579 38.9797 14.0214C39.0053 13.9231 39.0155 13.807 39.0021 13.6692C38.9149 12.7712 37.8574 10.0834 35.702 7.65064C34.523 6.32 32.8037 4.83093 30.456 3.82658C31.4658 3.62365 32.8466 3.43442 34.3927 3.46771V3.46771ZM12.4756 32.1313C11.3924 33.3941 10.6444 33.152 10.3984 33.0726C8.79565 32.5542 6.93584 29.2695 5.29617 24.0609C3.87735 19.554 3.04824 15.022 2.98252 13.7511C2.77542 9.73197 3.78023 6.93094 5.96922 5.42567C9.53167 2.97621 15.3887 4.44233 17.7422 5.18588C17.7084 5.21828 17.6731 5.24854 17.6397 5.28148C13.7776 9.06317 13.8693 15.5243 13.8788 15.9193C13.8784 16.0717 13.8917 16.2875 13.9097 16.5842C13.9761 17.671 14.0999 19.6935 13.7694 21.984C13.4624 24.1125 14.1391 26.1958 15.6257 27.6998C15.7783 27.8539 15.9386 28.0005 16.1062 28.1392C15.4445 28.8263 14.0064 30.3458 12.4756 32.1313V32.1313ZM16.6026 26.7921C15.4045 25.5799 14.8603 23.8937 15.1094 22.1656C15.4583 19.7461 15.3296 17.6387 15.2604 16.5066C15.2506 16.3482 15.242 16.2093 15.237 16.0998C15.8012 15.6147 18.4158 14.2565 20.2804 14.6707C21.1311 14.8596 21.6496 15.4214 21.8651 16.3877C22.9807 21.3904 22.0127 23.4754 21.235 25.1511C21.0748 25.4962 20.9233 25.8225 20.794 26.16L20.6938 26.421C20.4401 27.0807 20.204 27.6941 20.0577 28.2766C18.7839 28.273 17.5448 27.7454 16.6026 26.792V26.7921ZM16.7981 33.5388C16.4262 33.4487 16.0917 33.2923 15.8954 33.1625C16.0594 33.0877 16.3511 32.9859 16.8571 32.8848C19.3057 32.3962 19.6839 32.0512 20.5097 31.0345C20.6989 30.8013 20.9136 30.5372 21.2108 30.2153L21.2112 30.215C21.6538 29.7343 21.8563 29.8159 22.2235 29.9636C22.5211 30.0829 22.811 30.4446 22.9285 30.8426C22.9841 31.0306 23.0466 31.3874 22.8422 31.6651C21.1172 34.007 18.6034 33.9769 16.7981 33.5388V33.5388ZM29.6128 45.1011C26.6173 45.7234 25.5567 44.2415 24.8577 42.5473C24.4066 41.4536 24.1848 36.5216 24.3422 31.075C24.3442 31.0025 24.3336 30.9325 24.313 30.8667C24.2946 30.7366 24.2666 30.608 24.2293 30.4818C23.9954 29.6893 23.4253 29.0264 22.7414 28.7515C22.4697 28.6424 21.9711 28.4421 21.3718 28.5908C21.4996 28.0802 21.7212 27.5037 21.9615 26.8794L22.0623 26.6168C22.1758 26.3208 22.3182 26.0141 22.4688 25.6894C23.2827 23.9363 24.3973 21.5351 23.1876 16.1105C22.7345 14.0787 21.2213 13.0864 18.9275 13.317C17.5523 13.4549 16.2942 13.9929 15.6666 14.3014C15.5317 14.3676 15.4083 14.4317 15.293 14.494C15.4682 12.4468 16.1298 8.62099 18.6051 6.20038C20.1636 4.67659 22.2391 3.92395 24.7679 3.96454C29.7507 4.04358 32.9459 6.52294 34.7492 8.58913C36.3031 10.3694 37.1445 12.1629 37.4803 13.1302C34.955 12.8812 33.2375 13.3645 32.3669 14.5714C30.4727 17.1967 33.4031 22.2922 34.8114 24.7411C35.0697 25.1899 35.2926 25.5777 35.3628 25.7426C35.8214 26.8203 36.4151 27.5398 36.8486 28.0649C36.9815 28.2259 37.1104 28.382 37.2084 28.5183C36.4436 28.7321 35.0697 29.2261 35.195 31.6953C35.094 32.9343 34.3759 38.735 34.0111 40.7845C33.5296 43.492 32.502 44.5005 29.6128 45.1013V45.1011ZM42.1163 31.2275C41.3342 31.5794 40.0253 31.8434 38.782 31.9002C37.4087 31.9625 36.7096 31.751 36.5451 31.6209C36.468 30.0822 37.0586 29.9214 37.6838 29.7513C37.782 29.7245 37.8778 29.6984 37.9703 29.6671C38.0278 29.7124 38.0908 29.7575 38.1598 29.8016C39.2636 30.508 41.2323 30.5842 44.0117 30.0279L44.0422 30.022C43.6673 30.3618 43.0258 30.8179 42.1163 31.2275Z" fill="#121212"/>
</svg>
