<svg width="45" height="44" viewBox="0 0 45 44" fill="none" xmlns="http://www.w3.org/2000/svg">
<path d="M22.3007 0C10.8959 0 11.608 4.888 11.608 4.888L11.6206 9.95212H22.504V11.4725H7.29793C7.29793 11.4725 0 10.6545 0 22.0274C0 33.4006 6.36981 32.9973 6.36981 32.9973H10.1713V27.7197C10.1713 27.7197 9.96636 21.4243 16.4394 21.4243H27.2338C27.2338 21.4243 33.2984 21.5211 33.2984 15.6315V5.89342C33.2984 5.89342 34.2195 0 22.3007 0ZM16.2996 3.40552C16.5568 3.40529 16.8115 3.45519 17.0491 3.55235C17.2868 3.64951 17.5027 3.79204 17.6846 3.97177C17.8664 4.1515 18.0106 4.36491 18.1089 4.59978C18.2072 4.83465 18.2577 5.08638 18.2575 5.34055C18.2577 5.59473 18.2072 5.84646 18.1089 6.08133C18.0106 6.3162 17.8664 6.52961 17.6846 6.70934C17.5027 6.88907 17.2868 7.03159 17.0491 7.12876C16.8115 7.22592 16.5568 7.27582 16.2996 7.27559C16.0424 7.27582 15.7877 7.22592 15.55 7.12876C15.3124 7.03159 15.0965 6.88907 14.9146 6.70934C14.7328 6.52961 14.5885 6.3162 14.4902 6.08133C14.3919 5.84646 14.3414 5.59473 14.3417 5.34055C14.3414 5.08638 14.3919 4.83465 14.4902 4.59978C14.5885 4.36491 14.7328 4.1515 14.9146 3.97177C15.0965 3.79204 15.3124 3.64951 15.55 3.55235C15.7877 3.45519 16.0424 3.40529 16.2996 3.40552V3.40552Z" fill="#121212"/>
<path d="M22.6995 43.9988C34.1043 43.9988 33.3922 39.147 33.3922 39.147L33.3795 34.1205H22.4959V32.6114H37.7021C37.7021 32.6114 45 33.4233 45 22.1344C45 10.8455 38.6302 11.2459 38.6302 11.2459H34.8287V16.4842C34.8287 16.4842 35.0336 22.733 28.5605 22.733H17.7662C17.7662 22.733 11.7016 22.6369 11.7016 28.483V38.1492C11.7016 38.1492 10.7807 43.9988 22.6993 43.9988H22.6995ZM28.7006 40.6188C28.4434 40.619 28.1887 40.5695 27.951 40.4731C27.7134 40.3766 27.4975 40.2351 27.3156 40.0567C27.1337 39.8784 26.9895 39.6665 26.8912 39.4334C26.7929 39.2003 26.7424 38.9504 26.7427 38.6981C26.7424 38.4458 26.7929 38.1959 26.8912 37.9628C26.9895 37.7296 27.1337 37.5178 27.3155 37.3393C27.4974 37.1609 27.7133 37.0194 27.951 36.923C28.1887 36.8265 28.4434 36.777 28.7006 36.7772C28.9578 36.777 29.2125 36.8265 29.4501 36.923C29.6878 37.0194 29.9037 37.1609 30.0855 37.3393C30.2674 37.5177 30.4116 37.7295 30.5099 37.9626C30.6082 38.1958 30.6587 38.4456 30.6585 38.6979C30.6587 38.9502 30.6082 39.2001 30.5099 39.4332C30.4116 39.6663 30.2674 39.8782 30.0855 40.0566C29.9037 40.235 29.6878 40.3764 29.4501 40.4729C29.2125 40.5693 28.9578 40.6189 28.7006 40.6186V40.6188Z" fill="#121212"/>
</svg>
