<svg width="53" height="47" viewBox="0 0 53 47" fill="none" xmlns="http://www.w3.org/2000/svg">
<path d="M52.4838 23.5054C52.4838 20.0092 48.1298 16.6958 41.4543 14.6411C42.9948 7.79927 42.3101 2.35592 39.2933 0.613183C38.598 0.204394 37.7849 0.0107574 36.897 0.0107574V2.4097C37.3891 2.4097 37.7849 2.50652 38.1166 2.6894C39.5715 3.5285 40.2026 6.72351 39.7105 10.8329C39.5929 11.8441 39.4003 12.9091 39.1649 13.9957C37.0682 13.4793 34.7788 13.0813 32.3718 12.8231C30.9276 10.8329 29.4299 9.02563 27.9215 7.44427C31.409 4.18471 34.6825 2.39895 36.9077 2.39895V0C33.9658 0 30.1145 2.10849 26.2205 5.76608C22.3265 2.13001 18.4752 0.0430306 15.5333 0.0430306V2.44198C17.7478 2.44198 21.032 4.21698 24.5195 7.45502C23.0218 9.03639 21.5241 10.8329 20.1013 12.8231C17.6836 13.0813 15.3943 13.4793 13.2975 14.0064C13.0514 12.9306 12.8696 11.8872 12.7412 10.8867C12.2384 6.77729 12.8589 3.58228 14.3031 2.73243C14.624 2.5388 15.0412 2.45274 15.5333 2.45274V0.0537881C14.6347 0.0537881 13.8217 0.247425 13.1156 0.656214C10.1095 2.39895 9.43553 7.83154 10.9867 14.6519C4.33264 16.7173 0 20.0199 0 23.5054C0 27.0016 4.35404 30.3149 11.0295 32.3696C9.48902 39.2115 10.1737 44.6548 13.1905 46.3976C13.8859 46.8064 14.6989 47 15.5975 47C18.5394 47 22.3907 44.8915 26.2847 41.2339C30.1787 44.87 34.03 46.957 36.9719 46.957C37.8705 46.957 38.6835 46.7633 39.3896 46.3545C42.3957 44.6118 43.0697 39.1792 41.5185 32.3589C48.1512 30.3042 52.4838 26.9908 52.4838 23.5054V23.5054ZM38.5552 16.3301C38.1593 17.7178 37.6672 19.1485 37.1109 20.5793C36.6723 19.7187 36.2123 18.8581 35.7095 17.9975C35.2174 17.1369 34.6932 16.2978 34.169 15.4802C35.6881 15.7061 37.1537 15.9858 38.5552 16.3301ZM33.6555 27.7869C32.8211 29.2392 31.9653 30.6162 31.0773 31.8963C29.4834 32.0362 27.868 32.1115 26.2419 32.1115C24.6265 32.1115 23.0111 32.0362 21.4279 31.9071C20.5399 30.6269 19.6734 29.2607 18.839 27.8192C18.0259 26.4099 17.2878 24.9792 16.6138 23.5376C17.2771 22.0961 18.0259 20.6546 18.8283 19.2454C19.6627 17.7931 20.5185 16.4161 21.4065 15.136C23.0004 14.9961 24.6158 14.9208 26.2419 14.9208C27.8573 14.9208 29.4727 14.9961 31.0559 15.1252C31.9439 16.4054 32.8104 17.7716 33.6448 19.2131C34.4579 20.6223 35.196 22.0531 35.87 23.4946C35.196 24.9361 34.4579 26.3777 33.6555 27.7869ZM37.1109 26.3884C37.6886 27.8299 38.1807 29.2715 38.5873 30.6699C37.1858 31.0142 35.7095 31.3046 34.1797 31.5306C34.7039 30.7022 35.2281 29.8524 35.7202 28.981C36.2123 28.1204 36.6723 27.249 37.1109 26.3884ZM26.2633 37.8668C25.2684 36.8341 24.2735 35.683 23.2893 34.4244C24.2521 34.4674 25.2363 34.4997 26.2312 34.4997C27.2368 34.4997 28.2317 34.4781 29.2052 34.4244C28.2424 35.683 27.2475 36.8341 26.2633 37.8668ZM18.3041 31.5306C16.785 31.3046 15.3194 31.0249 13.9179 30.6807C14.3138 29.293 14.8059 27.8622 15.3622 26.4314C15.8008 27.2921 16.2608 28.1527 16.7636 29.0133C17.2664 29.8739 17.7799 30.713 18.3041 31.5306ZM26.2098 9.14397C27.2047 10.1767 28.1996 11.3278 29.1838 12.5864C28.221 12.5434 27.2368 12.5111 26.2419 12.5111C25.2363 12.5111 24.2414 12.5326 23.2679 12.5864C24.2307 11.3278 25.2256 10.1767 26.2098 9.14397ZM18.2934 15.4802C17.7692 16.3085 17.245 17.1584 16.7529 18.0298C16.2608 18.8904 15.8008 19.751 15.3622 20.6116C14.7845 19.1701 14.2924 17.7285 13.8859 16.3301C15.2873 15.9966 16.7636 15.7061 18.2934 15.4802V15.4802ZM8.6118 28.9487C4.82475 27.3243 2.37493 25.1943 2.37493 23.5054C2.37493 21.8164 4.82475 19.6757 8.6118 18.062C9.53181 17.664 10.5374 17.309 11.5751 16.9755C12.1849 19.084 12.9872 21.2786 13.9821 23.5269C12.9979 25.7645 12.2063 27.9483 11.6072 30.046C10.5481 29.7125 9.54251 29.3468 8.6118 28.9487ZM14.3673 44.3214C12.9123 43.4823 12.2812 40.2872 12.7733 36.1778C12.8909 35.1666 13.0835 34.1016 13.3189 33.0151C15.4156 33.5315 17.705 33.9295 20.112 34.1877C21.5562 36.1778 23.0539 37.9851 24.5623 39.5665C21.0748 42.826 17.8013 44.6118 15.5761 44.6118C15.0947 44.6011 14.6882 44.5042 14.3673 44.3214V44.3214ZM39.7426 36.1241C40.2454 40.2335 39.625 43.4285 38.1807 44.2783C37.8598 44.472 37.4426 44.558 36.9505 44.558C34.736 44.558 31.4518 42.783 27.9643 39.545C29.462 37.9636 30.9597 36.1671 32.3825 34.1769C34.8002 33.9187 37.0896 33.5207 39.1863 32.9936C39.4324 34.0801 39.625 35.1236 39.7426 36.1241V36.1241ZM43.8613 28.9487C42.9413 29.3468 41.9357 29.7018 40.898 30.0352C40.2882 27.9268 39.4859 25.7322 38.491 23.4839C39.4752 21.2463 40.2668 19.0625 40.8659 16.9648C41.925 17.2982 42.9306 17.664 43.872 18.062C47.6591 19.6864 50.1089 21.8164 50.1089 23.5054C50.0982 25.1943 47.6484 27.3351 43.8613 28.9487V28.9487Z" fill="#9CA3AF"/>
<path d="M26.2312 28.4216C28.9313 28.4216 31.1201 26.2205 31.1201 23.5053C31.1201 20.7902 28.9313 18.5891 26.2312 18.5891C23.5311 18.5891 21.3423 20.7902 21.3423 23.5053C21.3423 26.2205 23.5311 28.4216 26.2312 28.4216Z" fill="#9CA3AF"/>
</svg>
