<svg width="45" height="45" viewBox="0 0 45 45" fill="none" xmlns="http://www.w3.org/2000/svg">
<path d="M0 22.5V0H45V45H0" fill="#121212"/>
<path d="M9.86621 22.5787V24.4125H15.7162V41.0625H19.8675V24.4125H25.7175V22.6125C25.7175 21.6 25.7175 20.7787 25.6725 20.7562C25.6725 20.7225 22.1062 20.7112 17.775 20.7112L9.89996 20.745V22.59L9.86621 22.5787V22.5787ZM36.1575 20.7C37.305 20.97 38.1825 21.4875 38.97 22.3087C39.3862 22.7587 40.005 23.5462 40.05 23.7487C40.05 23.8162 38.1037 25.1325 36.9225 25.8637C36.8775 25.8975 36.6975 25.7062 36.5175 25.4137C35.9325 24.5812 35.3362 24.2212 34.4025 24.1537C33.0525 24.0637 32.1525 24.7725 32.1525 25.9537C32.1525 26.3137 32.22 26.5162 32.355 26.8087C32.6587 27.4275 33.2212 27.7987 34.965 28.5637C38.1825 29.9475 39.5775 30.8587 40.4212 32.1637C41.3775 33.6262 41.5912 35.9212 40.95 37.6425C40.23 39.5212 38.475 40.7925 35.9662 41.2087C35.1787 41.3437 33.3787 41.3212 32.535 41.175C30.735 40.8375 29.0137 39.9375 27.9562 38.7787C27.54 38.3287 26.7412 37.125 26.7862 37.0462L27.2137 36.7762L28.9012 35.7975L30.1725 35.055L30.465 35.4487C30.8362 36.0337 31.6687 36.8212 32.1525 37.0912C33.615 37.845 35.5725 37.7437 36.54 36.8662C36.9562 36.4837 37.1362 36.0787 37.1362 35.5162C37.1362 34.9987 37.0575 34.7625 36.7987 34.3687C36.4387 33.8737 35.7187 33.4687 33.6937 32.5687C31.365 31.5787 30.375 30.9487 29.4525 29.9812C28.9237 29.3962 28.44 28.485 28.215 27.7312C28.0462 27.0787 27.99 25.4812 28.1475 24.84C28.6312 22.59 30.33 21.015 32.76 20.565C33.5475 20.4075 35.4037 20.475 36.18 20.6775L36.1575 20.7V20.7Z" fill="white"/>
</svg>
